<?xml version="1.0" encoding="UTF-8" standalone="no"?>
<!-- Created with Inkscape (http://www.inkscape.org/) -->

<svg
   version="1.1"
   id="svg1"
   width="12741"
   height="925"
   viewBox="0 0 12741 925"
   sodipodi:docname="ForestFollies_Background_Finished_Smaller_3.svg"
   inkscape:version="1.4 (86a8ad7, 2024-10-11)"
   xmlns:inkscape="http://www.inkscape.org/namespaces/inkscape"
   xmlns:sodipodi="http://sodipodi.sourceforge.net/DTD/sodipodi-0.dtd"
   xmlns:xlink="http://www.w3.org/1999/xlink"
   xmlns="http://www.w3.org/2000/svg"
   xmlns:svg="http://www.w3.org/2000/svg">
  <defs
     id="defs1" />
  <sodipodi:namedview
     id="namedview1"
     pagecolor="#ffffff"
     bordercolor="#000000"
     borderopacity="0.25"
     inkscape:showpageshadow="2"
     inkscape:pageopacity="0.0"
     inkscape:pagecheckerboard="0"
     inkscape:deskcolor="#d1d1d1"
     showgrid="false"
     inkscape:zoom="3.0248161"
     inkscape:cx="11184.812"
     inkscape:cy="400.02431"
     inkscape:window-width="2560"
     inkscape:window-height="1494"
     inkscape:window-x="-11"
     inkscape:window-y="-11"
     inkscape:window-maximized="1"
     inkscape:current-layer="g1" />
  <g
     inkscape:groupmode="layer"
     inkscape:label="Image"
     id="g1">
    <image
       width="12741"
       height="925"
       preserveAspectRatio="none"
       xlink:href="ForestFollies_Background_Finished_Smaller.png"
       id="image1" />
    <circle
       id="path1"
       style="fill:#21212f;stroke:#000000"
       cx="1.6087121"
       cy="788.26892"
       r="0.80987298" />
    <circle
       id="path2"
       style="fill:#21212f;stroke:#000000"
       cx="9.6522722"
       cy="923.40076"
       r="0.80987298" />
    <path
       style="fill:#21212f;fill-opacity:0.345098"
       d="M 1903.1064,786.66023 0,773.79053 1.6087121,923.40076 4110.2595,920.18333 V 764.13826 l -822.0519,4.82613 -24.5061,1.45194 0.3754,-73.84398 h -149.6102 l -8.0436,86.87045 -976.4882,-1.60871 -6.4349,-93.3053 -162.4799,-3.21743 -9.6523,99.74016 z"
       id="path3"
       sodipodi:nodetypes="ccccccccccccccc" />
    <path
       style="fill:#21212f;fill-opacity:0.345098"
       d="m 4053.9545,553.39697 3.2175,212.35 3265.6856,-6.43485 v 170.52349 l 1751.8875,-6.43485 8.0435,-127.08826 -389.3083,-4.82614 -1.6087,-154.43636 -147.9087,-2.15331 -1.5836,-125.42179 -629.0742,162.02815 -0.5948,38.08202 -136.1959,35.24864 -93.3053,19.30455 -120.6534,-9.65227 -228.4371,-90.08788 1.6087,-119.0447 -649.9197,-162.47992 -12.8697,112.60984 -670.833,-12.86969 2.0365,-82.84506 -587.0706,-9.22216 -2.1458,87.24108 z"
       id="path5"
       sodipodi:nodetypes="cccccccccccccccccccccccc" />
    <path
       style="fill:#21212f;fill-opacity:0.345098"
       d="m 9341.598,698.15596 21.8093,226.87861 2672.9767,-4.85124 22.522,-447.22197 -297.612,45.04394 -437.569,72.39205 -749.936,17.25162 -0.764,-105.6304 -168.939,11.60481 -132.459,-24.57489 -427.792,26.1585 -1.7342,76.79907 -231.4789,-1.55852 -1.039,112.01506 z"
       id="path9"
       sodipodi:nodetypes="ccccccccccccccc" />
    <path
       style="fill:#21212f;fill-opacity:0.345098"
       d="M -0.75089281,199.73749 V 802.70442 L 25.530356,801.95352 27.032141,199.73749 Z"
       id="path13" />
    <path
       style="fill:#21212f;fill-opacity:0.345098"
       d="m 2457.0466,668.82932 h 269.334 z"
       id="path14" />
    <path
       style="fill:#21212f;fill-opacity:0.345098"
       d="m 2554.918,485.60213 132.9148,-1.25156 z"
       id="path15" />
    <path
       style="fill:#21212f;fill-opacity:0.345098"
       d="m 3744.8935,650.05604 330.4097,1.50186 z"
       id="path16" />
    <path
       style="fill:#21212f;fill-opacity:0.345098"
       d="m 6075.5334,278.84576 291.8619,1.50186 z"
       id="path17" />
    <path
       style="fill:#21212f;fill-opacity:0.345098"
       d="m 8688.1314,638.38591 253.8997,1.98359 z"
       id="path18" />
    <path
       style="fill:#21212f;fill-opacity:0.345098"
       d="m 9131.4641,756.40961 145.4634,-0.3306 z"
       id="path19" />
    <path
       style="fill:#21212f;fill-opacity:0.345098"
       d="m 10919.011,473.41721 389.776,-10.24856 z"
       id="path20" />
  </g>
</svg>
