<?xml version="1.0" encoding="UTF-8" standalone="no"?>
<!-- Created with Inkscape (http://www.inkscape.org/) -->

<svg
   version="1.1"
   id="svg1"
   width="12741"
   height="925"
   viewBox="0 0 12741 925"
   sodipodi:docname="ForestFollies_Background_Finished_Smaller.svg"
   inkscape:version="1.4 (86a8ad7, 2024-10-11)"
   xmlns:inkscape="http://www.inkscape.org/namespaces/inkscape"
   xmlns:sodipodi="http://sodipodi.sourceforge.net/DTD/sodipodi-0.dtd"
   xmlns:xlink="http://www.w3.org/1999/xlink"
   xmlns="http://www.w3.org/2000/svg"
   xmlns:svg="http://www.w3.org/2000/svg">
  <defs
     id="defs1" />
  <sodipodi:namedview
     id="namedview1"
     pagecolor="#ffffff"
     bordercolor="#000000"
     borderopacity="0.25"
     inkscape:showpageshadow="2"
     inkscape:pageopacity="0.0"
     inkscape:pagecheckerboard="0"
     inkscape:deskcolor="#d1d1d1"
     showgrid="false"
     inkscape:zoom="1.374352"
     inkscape:cx="11211.829"
     inkscape:cy="487.86628"
     inkscape:window-width="2560"
     inkscape:window-height="1494"
     inkscape:window-x="-11"
     inkscape:window-y="-11"
     inkscape:window-maximized="1"
     inkscape:current-layer="g1" />
  <g
     inkscape:groupmode="layer"
     inkscape:label="Image"
     id="g1">
    <image
       width="12741"
       height="925"
       preserveAspectRatio="none"
       xlink:href="ForestFollies_Background_Finished_Smaller.png"
       id="image1" />
    <circle
       id="path1"
       style="fill:#21212f;stroke:#000000"
       cx="1.6087121"
       cy="788.26892"
       r="0.80987298" />
    <circle
       id="path2"
       style="fill:#21212f;stroke:#000000"
       cx="9.6522722"
       cy="923.40076"
       r="0.80987298" />
    <path
       style="fill:#21212f;fill-opacity:0.345098"
       d="M 1903.1064,786.66023 0,773.79053 1.6087121,923.40076 4110.2595,920.18333 V 764.13826 l -822.0519,4.82613 -24.5061,1.45194 0.3754,-73.84398 h -149.6102 l -8.0436,86.87045 -976.4882,-1.60871 -6.4349,-93.3053 -162.4799,-3.21743 -9.6523,99.74016 z"
       id="path3"
       sodipodi:nodetypes="ccccccccccccccc" />
    <path
       style="fill:#21212f;fill-opacity:0.345098"
       d="m 3729.7978,656.94384 367.9674,-0.26852 -0.2685,-8.57578 -367.0002,-0.0523 z"
       id="path4"
       sodipodi:nodetypes="ccccc" />
    <path
       style="fill:#21212f;fill-opacity:0.345098"
       d="m 4053.9545,553.39697 3.2175,212.35 3265.6856,-6.43485 v 170.52349 l 1751.8875,-6.43485 8.0435,-127.08826 -389.3083,-4.82614 -1.6087,-154.43636 -147.9087,-2.15331 -1.5836,-125.42179 -629.0742,162.02815 -0.5948,38.08202 -136.1959,35.24864 -93.3053,19.30455 -120.6534,-9.65227 -228.4371,-90.08788 1.6087,-119.0447 -649.9197,-162.47992 -12.8697,112.60984 -670.833,-12.86969 2.0365,-82.84506 -587.0706,-9.22216 -2.1458,87.24108 z"
       id="path5"
       sodipodi:nodetypes="cccccccccccccccccccccccc" />
    <path
       style="fill:#21212f;fill-opacity:0.345098"
       d="m 6066.9358,279.51674 -0.4824,6.21377 309.9183,0.6701 -0.107,-6.4823 z"
       id="path6"
       sodipodi:nodetypes="ccccc" />
    <path
       style="fill:#21212f;fill-opacity:0.345098"
       d="m 8688.0594,638.65871 259.1532,2.77322 -0.1004,9.30089 -258.4329,-1.684 z"
       id="path7"
       sodipodi:nodetypes="ccccc" />
    <path
       style="fill:#21212f;fill-opacity:0.345098"
       d="m 9130.5054,756.99068 1.1143,11.27852 h 150.1046 l 0.1256,-11.32872 z"
       id="path8"
       sodipodi:nodetypes="ccccc" />
    <path
       style="fill:#21212f;fill-opacity:0.345098"
       d="m 9341.598,698.15596 21.8093,226.87861 2672.9767,-4.85124 22.522,-447.22197 -297.612,45.04394 -437.569,72.39205 -749.936,17.25162 -0.764,-105.6304 -168.939,11.60481 -132.459,-24.57489 -427.792,26.1585 -1.7342,76.79907 -231.4789,-1.55852 -1.039,112.01506 z"
       id="path9"
       sodipodi:nodetypes="ccccccccccccccc" />
    <path
       style="fill:#21212f;fill-opacity:0.345098"
       d="m 2447.8827,666.29957 286.6435,0.28439 0.5688,5.91344 -287.7726,-2.17749 z"
       id="path10"
       sodipodi:nodetypes="ccccc" />
    <path
       style="fill:#21212f;fill-opacity:0.345098"
       d="m 2554.2612,485.75022 140.234,-1.03995 -1.5111,5.23035 -139.194,2.76299 z"
       id="path11"
       sodipodi:nodetypes="ccccc" />
    <path
       style="fill:#21212f;fill-opacity:0.345098"
       d="m 10913.826,466.67333 398.24,-0.29362 -0.595,6.33068 -397.62,0.1468 z"
       id="path12"
       sodipodi:nodetypes="ccccc" />
    <path
       style="fill:#21212f;fill-opacity:0.345098"
       d="M -0.75089281,199.73749 V 802.70442 L 25.530356,801.95352 27.032141,199.73749 Z"
       id="path13" />
  </g>
</svg>
